<?xml version="1.0" encoding="UTF-8" standalone="no"?><!DOCTYPE svg PUBLIC "-//W3C//DTD SVG 1.1//EN" "http://www.w3.org/Graphics/SVG/1.1/DTD/svg11.dtd"><svg width="100%" height="100%" viewBox="0 0 173 173" version="1.1" xmlns="http://www.w3.org/2000/svg" xmlns:xlink="http://www.w3.org/1999/xlink" xml:space="preserve" xmlns:serif="http://www.serif.com/" style="fill-rule:evenodd;clip-rule:evenodd;stroke-linecap:round;stroke-linejoin:round;stroke-miterlimit:1.5;"><path d="M90.285,5.493l10.945,1.276l1.251,21.048l12.392,4.919l15.345,-14.461l8.84,6.577l-9.44,18.854l8.272,10.456l20.52,-4.851l4.367,10.116l-17.602,11.608l1.936,13.191l20.196,6.059l-1.276,10.945l-21.048,1.251l-4.919,12.392l14.461,15.345l-6.577,8.84l-18.854,-9.44l-10.456,8.272l4.851,20.52l-10.116,4.367l-11.608,-17.602l-13.191,1.936l-6.059,20.196c0,0 -10.098,-1.513 -10.945,-1.276c-0.847,0.237 -1.251,-21.048 -1.251,-21.048l-12.392,-4.919l-15.345,14.461l-8.84,-6.577l9.44,-18.854l-8.272,-10.456l-20.52,4.851l-4.367,-10.116l17.602,-11.608l-1.936,-13.191l-20.196,-6.059l1.276,-10.945l21.048,-1.251l4.919,-12.392l-14.461,-15.345l6.577,-8.84l18.854,9.44l10.456,-8.272l-4.851,-20.52l10.116,-4.367l11.608,17.602l13.191,-1.936l6.059,-20.196Zm-3.885,44.907l10.391,1.525l8.139,3.61l5.588,4.148l5.368,6.069l3.797,6.913l1.714,5.268l1.003,6.942l0,6.295l-2.804,9.173l-2.893,5.489l-3.78,4.9l-6.601,5.651l-6.126,3.274l-6.5,2.002l-7.296,0.741l-6.824,-0.647l-8.232,-2.648l-5.811,-3.374l-5.861,-5.224l-4.242,-5.754l-2.689,-5.565l-1.738,-6.196l-0.603,-6.592l0.54,-6.241l1.396,-5.428l2.558,-5.752l4.833,-6.746l5.796,-5.157l5.502,-3.232l5.497,-2.07l4.82,-1.021l5.058,-0.353Z" style="fill:#fff;stroke:#fff;stroke-width:0.24px;"/><path d="M86.4,57.6l6.706,0.786l5.245,1.807l4.923,2.872l4.572,4.12l4.025,5.771l2.396,6.15l0.933,7.294l-0.559,5.669l-2.512,7.277l-3.212,5.003l-4.223,4.288l-4.998,3.312l-4.693,1.942l-4.957,1.08l-3.646,0.229l-6.672,-0.778l-6.58,-2.45l-4.435,-2.848l-3.66,-3.399l-3.532,-4.817l-2.459,-5.43l-1.398,-7.146l0.133,-5.314l1.256,-5.667l2.702,-5.853l2.657,-3.691l3.384,-3.385l4.831,-3.317l5.596,-2.326l4.84,-0.987l3.337,-0.192Zm0.032,4.498l4.778,0.482l5.424,1.775l4.798,2.953l3.166,2.996l1.938,2.501l2.427,4.569l1.669,7.158l-0.123,4.905l-1.279,5.299l-2.309,4.684l-3.335,4.154l-4.006,3.237l-4.989,2.469l-6.218,1.344l-4.462,-0.052l-4.836,-0.998l-4.828,-2.127l-5.296,-4.14l-2.254,-2.692l-3.182,-6.037l-1.274,-5.529l-0.054,-4.71l0.694,-4.061l1.531,-4.233l2.837,-4.603l3.101,-3.281l4.666,-3.227l4.238,-1.763l7.178,-1.073Z" style="fill:#fff;stroke:#fff;stroke-width:0.24px;"/><g id="Gear-3" serif:id="Gear 3"><path d="M101.23,6.769c-3.615,-0.673 -7.272,-1.099 -10.945,-1.276l-6.059,20.196c-4.455,0.159 -8.878,0.809 -13.191,1.936l-11.608,-17.602c-3.467,1.224 -6.847,2.683 -10.116,4.367l4.851,20.52c-3.778,2.365 -7.285,5.139 -10.456,8.272l-18.854,-9.44c-2.39,2.794 -4.587,5.747 -6.577,8.84l14.461,15.345c-2.09,3.938 -3.739,8.094 -4.919,12.392l-21.048,1.251c-0.673,3.615 -1.099,7.272 -1.276,10.945l20.196,6.059c0.159,4.455 0.809,8.878 1.936,13.191l-17.602,11.608c1.224,3.467 2.683,6.847 4.367,10.116l20.52,-4.851c2.365,3.778 5.139,7.285 8.272,10.456l-9.44,18.854c2.794,2.39 5.747,4.587 8.84,6.577l15.345,-14.461c3.938,2.09 8.094,3.739 12.392,4.919l1.251,21.048c3.615,0.673 7.272,1.099 10.945,1.276l6.059,-20.196c4.455,-0.159 8.878,-0.809 13.191,-1.936l11.608,17.602c3.467,-1.224 6.847,-2.683 10.116,-4.367l-4.851,-20.52c3.778,-2.365 7.285,-5.139 10.456,-8.272l18.854,9.44c2.39,-2.794 4.587,-5.747 6.577,-8.84l-14.461,-15.345c2.09,-3.938 3.739,-8.094 4.919,-12.392l21.048,-1.251c0.673,-3.615 1.099,-7.272 1.276,-10.945l-20.196,-6.059c-0.159,-4.455 -0.809,-8.878 -1.936,-13.191l17.602,-11.608c-1.224,-3.467 -2.683,-6.847 -4.367,-10.116l-20.52,4.851c-2.365,-3.778 -5.139,-7.285 -8.272,-10.456l9.44,-18.854c-2.794,-2.39 -5.747,-4.587 -8.84,-6.577l-15.345,14.461c-3.938,-2.09 -8.094,-3.739 -12.392,-4.919l-1.251,-21.048Zm-12.016,55.494c13.321,1.553 22.876,13.629 21.323,26.951c-1.553,13.321 -13.629,22.876 -26.951,21.323c-13.321,-1.553 -22.876,-13.629 -21.323,-26.951c1.553,-13.321 13.629,-22.876 26.951,-21.323Z" style="fill:none;stroke:#dedede;stroke-width:1px;"/><circle cx="86.4" cy="86.4" r="28.8" style="fill:none;stroke:#dedede;stroke-width:1px;"/><circle cx="86.4" cy="86.4" r="36" style="fill:none;stroke:#dedede;stroke-width:1px;"/></g></svg>