<?xml version="1.0" encoding="UTF-8" standalone="no"?><!DOCTYPE svg PUBLIC "-//W3C//DTD SVG 1.1//EN" "http://www.w3.org/Graphics/SVG/1.1/DTD/svg11.dtd"><svg width="100%" height="100%" viewBox="0 0 137 137" version="1.1" xmlns="http://www.w3.org/2000/svg" xmlns:xlink="http://www.w3.org/1999/xlink" xml:space="preserve" xmlns:serif="http://www.serif.com/" style="fill-rule:evenodd;clip-rule:evenodd;stroke-linecap:round;stroke-linejoin:round;stroke-miterlimit:1.5;"><path id="Gear-2" serif:id="Gear 2" d="M68.367,3.6c-4.21,0.002 -8.411,0.415 -12.541,1.232l-0.862,16.862c-4.114,1.184 -8.054,2.906 -11.718,5.122l-12.961,-10.821c-3.405,2.477 -6.561,5.279 -9.422,8.368l9.214,14.149c-2.633,3.376 -4.808,7.085 -6.469,11.031l-16.847,-1.136c-1.299,4.005 -2.204,8.127 -2.704,12.308l15.771,6.031c-0.146,4.278 0.275,8.558 1.25,12.726l-14.296,8.984c1.303,4.003 2.993,7.871 5.047,11.547l16.303,-4.392c2.397,3.548 5.253,6.763 8.492,9.562l-6.286,15.671c3.408,2.473 7.048,4.608 10.87,6.375l10.609,-13.136c4.024,1.461 8.224,2.384 12.49,2.744l4.126,16.373c4.21,-0.002 8.411,-0.415 12.541,-1.232l0.862,-16.862c4.114,-1.184 8.054,-2.906 11.718,-5.122l12.961,10.821c3.405,-2.477 6.561,-5.279 9.422,-8.368l-9.214,-14.149c2.633,-3.376 4.808,-7.085 6.469,-11.031l16.847,1.136c1.299,-4.005 2.204,-8.127 2.704,-12.308l-15.771,-6.031c0.146,-4.278 -0.275,-8.558 -1.25,-12.726l14.296,-8.984c-1.303,-4.003 -2.993,-7.871 -5.047,-11.547l-16.303,4.392c-2.397,-3.548 -5.253,-6.763 -8.492,-9.562l6.286,-15.671c-3.408,-2.473 -7.048,-4.608 -10.87,-6.375l-10.609,13.136c-4.024,-1.461 -8.224,-2.384 -12.49,-2.744l-4.126,-16.373Zm-1.55,48.678c8.898,-0.874 16.832,5.64 17.705,14.539c0.874,8.898 -5.64,16.832 -14.539,17.705c-8.898,0.874 -16.832,-5.64 -17.705,-14.539c-0.874,-8.898 5.64,-16.832 14.539,-17.705Z" style="fill:#fff;stroke:#dedede;stroke-width:1px;"/></svg>