<?xml version="1.0" encoding="UTF-8" standalone="no"?><!DOCTYPE svg PUBLIC "-//W3C//DTD SVG 1.1//EN" "http://www.w3.org/Graphics/SVG/1.1/DTD/svg11.dtd"><svg width="100%" height="100%" viewBox="0 0 98 98" version="1.1" xmlns="http://www.w3.org/2000/svg" xmlns:xlink="http://www.w3.org/1999/xlink" xml:space="preserve" xmlns:serif="http://www.serif.com/" style="fill-rule:evenodd;clip-rule:evenodd;stroke-linecap:round;stroke-linejoin:round;stroke-miterlimit:1.5;"><path id="Gear-5" serif:id="Gear 5" d="M60.332,5.156c-3.797,-1.025 -7.711,-1.548 -11.644,-1.556l-5.826,11.741c-4.895,0.845 -9.544,2.76 -13.614,5.609l-12.406,-4.232c-2.786,2.775 -5.196,5.904 -7.169,9.306l7.255,10.916c-1.716,4.662 -2.382,9.645 -1.95,14.594l-9.867,8.628c1.01,3.8 2.514,7.452 4.474,10.862l13.081,-0.826c3.179,3.818 7.162,6.886 11.664,8.987l2.538,12.859c3.797,1.025 7.711,1.548 11.644,1.556l5.826,-11.741c4.895,-0.845 9.544,-2.76 13.614,-5.609l12.406,4.232c2.786,-2.775 5.196,-5.904 7.169,-9.306l-7.255,-10.916c1.716,-4.662 2.382,-9.645 1.95,-14.594l9.867,-8.628c-1.01,-3.8 -2.514,-7.452 -4.474,-10.862l-13.081,0.826c-3.179,-3.818 -7.162,-6.886 -11.664,-8.987l-2.538,-12.859Zm-10.123,31.401c6.647,0.888 11.322,7.006 10.434,13.652c-0.888,6.647 -7.006,11.322 -13.652,10.434c-6.647,-0.888 -11.322,-7.006 -10.434,-13.652c0.888,-6.647 7.006,-11.322 13.652,-10.434Z" style="fill:#fff;stroke:#dedede;stroke-width:1px;"/></svg>