<?xml version="1.0" encoding="UTF-8" standalone="no"?><!DOCTYPE svg PUBLIC "-//W3C//DTD SVG 1.1//EN" "http://www.w3.org/Graphics/SVG/1.1/DTD/svg11.dtd"><svg width="100%" height="100%" viewBox="0 0 116 116" version="1.1" xmlns="http://www.w3.org/2000/svg" xmlns:xlink="http://www.w3.org/1999/xlink" xml:space="preserve" xmlns:serif="http://www.serif.com/" style="fill-rule:evenodd;clip-rule:evenodd;stroke-linecap:round;stroke-linejoin:round;stroke-miterlimit:1.5;"><path d="M48.455,18.146l3.009,-14.196l12.272,0l3.009,14.196l12.287,5.089l12.165,-7.911l8.679,8.679l-7.911,12.165l5.089,12.287l14.196,3.009l0,12.272l-14.196,3.009l-5.089,12.287l7.911,12.165l-8.679,8.679l-12.165,-7.911l-12.287,5.089l-3.009,14.196l-12.272,0l-3.009,-14.196l-12.287,-5.089l-12.165,7.911l-8.679,-8.679l7.911,-12.165l-5.089,-12.287l-14.196,-3.009l0,-12.272l14.196,-3.009l5.089,-12.287l-7.911,-12.165l8.679,-8.679l12.165,7.911l12.287,-5.089Zm7.223,14.254l5.163,0l5.593,1.594l5.379,2.799l2.731,2.16l3.299,3.643l2.455,4.051l2.146,6.714l0.356,5.155l-1.035,6.25l-2.237,5.252l-3.984,5.268l-4.525,3.643l-5.41,2.569l-8.009,1.302l-6.464,-0.838l-7.143,-3.152l-4.815,-4.022l-3.008,-3.93l-2.958,-6.895l-0.812,-8.72l1.008,-4.716l1.039,-2.885l2.78,-4.869l3.843,-4.188l3.762,-3.55l5.006,-1.415l5.84,-1.22" style="fill:#fff;stroke:#fff;stroke-width:0.1px;"/><path d="M57.6,37.8l5.392,0.744l5.849,2.758l4.447,4.222l2.785,4.939l1.264,5.549l-0.321,5.483l-1.985,5.499l-3.025,4.184l-4.508,3.571l-5.862,2.239l-5.353,0.369l-5.672,-1.228l-4.591,-2.471l-3.536,-3.275l-2.436,-3.616l-1.654,-4.34l-0.594,-5.502l0.715,-4.612l1.765,-4.309l3.145,-4.223l4.829,-3.638l4.358,-1.708l4.988,-0.635Zm-0.031,4.14l5.097,0.839l3.839,1.941l3.369,3.159l2.067,3.426l1.287,5.281l-1.143,6.972l-2.958,4.638l-4.687,3.493l-3.026,1.102l-2.631,0.425l-5.586,-0.585l-4.106,-1.885l-2.97,-2.498l-2.192,-3.01l-1.734,-4.808l-0.203,-4.115l1.291,-5.065l2.81,-4.267l3.948,-3.099l4.27,-1.597l3.258,-0.347Z" style="fill:#fff;stroke:#fff;stroke-width:0.1px;"/><g id="Gear-1" serif:id="Gear 1"><path d="M63.736,3.95c-4.077,-0.467 -8.195,-0.467 -12.272,0l-3.009,14.196c-4.348,1.008 -8.5,2.727 -12.287,5.089l-12.165,-7.911c-3.213,2.554 -6.125,5.466 -8.679,8.679l7.911,12.165c-2.362,3.787 -4.081,7.939 -5.089,12.287l-14.196,3.009c-0.467,4.077 -0.467,8.195 0,12.272l14.196,3.009c1.008,4.348 2.727,8.5 5.089,12.287l-7.911,12.165c2.554,3.213 5.466,6.125 8.679,8.679l12.165,-7.911c3.787,2.362 7.939,4.081 12.287,5.089l3.009,14.196c4.077,0.467 8.195,0.467 12.272,0l3.009,-14.196c4.348,-1.008 8.5,-2.727 12.287,-5.089l12.165,7.911c3.213,-2.554 6.125,-5.466 8.679,-8.679l-7.911,-12.165c2.362,-3.787 4.081,-7.939 5.089,-12.287l14.196,-3.009c0.467,-4.077 0.467,-8.195 0,-12.272l-14.196,-3.009c-1.008,-4.348 -2.727,-8.5 -5.089,-12.287l7.911,-12.165c-2.554,-3.213 -5.466,-6.125 -8.679,-8.679l-12.165,7.911c-3.787,-2.362 -7.939,-4.081 -12.287,-5.089l-3.009,-14.196Zm-6.136,37.99c8.643,0 15.66,7.017 15.66,15.66c0,8.643 -7.017,15.66 -15.66,15.66c-8.643,0 -15.66,-7.017 -15.66,-15.66c0,-8.643 7.017,-15.66 15.66,-15.66Z" style="fill:none;stroke:#dedede;stroke-width:1px;"/><circle cx="57.6" cy="57.6" r="25.2" style="fill:none;stroke:#dedede;stroke-width:1px;"/><circle cx="57.6" cy="57.6" r="19.8" style="fill:none;stroke:#dedede;stroke-width:1px;"/></g></svg>