<?xml version="1.0" encoding="UTF-8" standalone="no"?><!DOCTYPE svg PUBLIC "-//W3C//DTD SVG 1.1//EN" "http://www.w3.org/Graphics/SVG/1.1/DTD/svg11.dtd"><svg width="100%" height="100%" viewBox="0 0 119 119" version="1.1" xmlns="http://www.w3.org/2000/svg" xmlns:xlink="http://www.w3.org/1999/xlink" xml:space="preserve" xmlns:serif="http://www.serif.com/" style="fill-rule:evenodd;clip-rule:evenodd;stroke-linecap:round;stroke-linejoin:round;stroke-miterlimit:1.5;"><path d="M56.954,5.455l12.244,0.841l2.029,14.369l11.909,5.92l12.679,-7.059l8.063,9.252l-8.726,11.595l4.236,12.607l13.957,3.974l-0.841,12.244l-14.369,2.029l-5.92,11.909l7.059,12.679l-9.252,8.063l-11.595,-8.726l-12.607,4.236l-3.974,13.957l-12.244,-0.841l-2.029,-14.369l-11.909,-5.92l-12.679,7.059l-8.063,-9.252l8.726,-11.595l-4.236,-12.607l-13.957,-3.974l0.841,-12.244l14.369,-2.029l5.92,-11.909l-7.059,-12.679l9.252,-8.063l11.595,8.726l12.607,-4.236l3.974,-13.957Zm2.446,28.789l7.967,1.287l6.937,3.596l4.382,4.103l3.648,5.762l1.794,5.577l0.472,7.603l-1.285,5.231l-3.055,6.177l-3.092,3.727l-5.724,4.274l-7.576,2.667l-6.734,0.396l-7.263,-1.867l-5.138,-2.844l-4.576,-4.225l-2.838,-4.118l-2.543,-6.771l-0.576,-6.321l1.056,-6.288l2.542,-5.743l3.854,-4.906l3.629,-2.988l6.021,-2.998l3.877,-0.978l4.221,-0.353Z" style="fill:#fff;stroke:#fff;stroke-width:0.1px;"/><path d="M59.4,39.6l4.226,0.453l4.089,1.375l4.1,2.551l2.951,2.939l2.745,4.474l1.424,4.761l0.265,3.291l-0.39,3.882l-1.549,4.623l-2.091,3.419l-2.553,2.77l-2.985,2.213l-4.734,2.074l-5.498,0.775l-4.396,-0.491l-3.576,-1.182l-3.006,-1.651l-2.304,-1.796l-2.394,-2.589l-1.864,-2.902l-1.323,-3.157l-0.937,-3.737l0,-4.26l0.699,-3.265l1.217,-3.272l1.544,-2.678l3.087,-3.525l3.703,-2.641l3.24,-1.425l3.112,-0.772l3.198,-0.257Zm0,4.139l2.43,0.19l3.051,0.798l3.101,1.574l2.525,2.064l2.383,3.084l1.437,3.208l0.71,3.877l-0.22,3.621l-1.498,4.425l-3.07,4.109l-3.106,2.322l-2.141,1.015l-4.213,0.974l-3.91,-0.143l-3.774,-1.115l-2.883,-1.654l-2.453,-2.207l-1.947,-2.681l-1.435,-3.337l-0.637,-3.873l0.496,-4.55l1.018,-2.785l2.031,-3.188l2.079,-2.093l2.869,-1.903l2.425,-1.002l2.186,-0.523l2.546,-0.207Z" style="fill:#fff;stroke:#fff;stroke-width:0.1px;"/><g id="Gear-4" serif:id="Gear 4"><path d="M69.198,6.296c-4.036,-0.744 -8.144,-1.026 -12.244,-0.841l-3.974,13.957c-4.407,0.708 -8.667,2.139 -12.607,4.236l-11.595,-8.726c-3.38,2.327 -6.485,5.032 -9.252,8.063l7.059,12.679c-2.616,3.617 -4.616,7.641 -5.92,11.909l-14.369,2.029c-0.744,4.036 -1.026,8.144 -0.841,12.244l13.957,3.974c0.708,4.407 2.139,8.667 4.236,12.607l-8.726,11.595c2.327,3.38 5.032,6.485 8.063,9.252l12.679,-7.059c3.617,2.616 7.641,4.616 11.909,5.92l2.029,14.369c4.036,0.744 8.144,1.026 12.244,0.841l3.974,-13.957c4.407,-0.708 8.667,-2.139 12.607,-4.236l11.595,8.726c3.38,-2.327 6.485,-5.032 9.252,-8.063l-7.059,-12.679c2.616,-3.617 4.616,-7.641 5.92,-11.909l14.369,-2.029c0.744,-4.036 1.026,-8.144 0.841,-12.244l-13.957,-3.974c-0.708,-4.407 -2.139,-8.667 -4.236,-12.607l8.726,-11.595c-2.327,-3.38 -5.032,-6.485 -8.063,-9.252l-12.679,7.059c-3.617,-2.616 -7.641,-4.616 -11.909,-5.92l-2.029,-14.369Zm-8.725,37.481c8.623,0.592 15.142,8.073 14.55,16.696c-0.592,8.623 -8.073,15.142 -16.696,14.55c-8.623,-0.592 -15.142,-8.073 -14.55,-16.696c0.592,-8.623 8.073,-15.142 16.696,-14.55Z" style="fill:none;stroke:#dedede;stroke-width:1px;"/><circle cx="59.4" cy="59.4" r="19.8" style="fill:none;stroke:#dedede;stroke-width:1px;"/><circle cx="59.4" cy="59.444" r="25.2" style="fill:none;stroke:#dedede;stroke-width:1px;"/></g></svg>