<?xml version="1.0" encoding="UTF-8" standalone="no"?><!DOCTYPE svg PUBLIC "-//W3C//DTD SVG 1.1//EN" "http://www.w3.org/Graphics/SVG/1.1/DTD/svg11.dtd"><svg width="100%" height="100%" viewBox="0 0 360 360" version="1.1" xmlns="http://www.w3.org/2000/svg" xmlns:xlink="http://www.w3.org/1999/xlink" xml:space="preserve" xmlns:serif="http://www.serif.com/" style="fill-rule:evenodd;clip-rule:evenodd;stroke-linecap:round;stroke-linejoin:round;stroke-miterlimit:1.5;"><path d="M28.45,244.068l0,33.223l4.861,3.922l10.67,1.275l7.761,-2.616l5.019,-5.321l2.683,-6.628l0.185,-8.097l0,-210.879l-1.26,-5.193l-3.385,-6.98l-6.488,-4.962l-10.728,-1.932l-7.443,1.721l-6.845,4.085l-3.208,3.633l-3.117,6.56l-0.764,9.214l0,211.362l2.997,-12.626l3.032,-5.359l3.033,-2.628l2.997,-1.774Z" style="fill:#abcdef;stroke:#5498da;stroke-width:0.2px;"/><path d="M250.907,349.2l0.221,-30.003l-72.082,0l0,9.915l8.41,0.402l12.511,1.081l10.994,1.605l11.134,2.876l11.968,6.098l5.593,8.026l11.251,0Z" style="fill:#abcdef;stroke:#5498da;stroke-width:0.2px;"/><path d="M271.96,319.197l0,30.003l11.471,0l7.203,-9.198l10.416,-4.946l6.95,-1.975l8.622,-1.652l6.103,-0.792l7.888,-1.123l13.428,0l0,-10.317l-72.081,0Z" style="fill:#abcdef;stroke:#5498da;stroke-width:0.2px;"/><path d="M107.736,80.431l79.72,0l10.612,3.178l8.784,4.529l5.522,7.207l-3.787,7.278l-8.62,5.215l-12.511,4.745l-79.762,0.074l-11.709,-3.714l-8.458,-4.652l-4.751,-7.305l3.502,-6.305l8.946,-5.501l12.512,-4.749Z" style="fill:#abcdef;stroke:#5498da;stroke-width:0.2px;"/><path d="M117.06,152.094l61.541,0l10.316,2.771l9.869,3.912l8.663,4.726l4.925,6.566l-6.77,6.418l-18.086,0.76l-19.002,0.555l-75.251,-0.539l-9.032,-7.177l1.932,-4.022l4.658,-3.639l7.035,-3.648l11.888,-3.929l7.314,-2.754Z" style="fill:#abcdef;stroke:#5498da;stroke-width:0.2px;"/><path d="M16.171,55.093l0,211.362m43.053,-211.362l0,211.362m213.5,-211.362l43.898,0l0,236.361l-44.442,0.016m-21.052,-236.377l-191.684,0m-18.375,236.377l209.838,0m-209.738,-0.016c0,0 -21.746,1.546 -24.998,-24.999m0,0c0,0 -1.704,-22.429 21.781,-24.998m0,0c0,0 23.775,-2.104 21.272,24.998m-43.053,-211.362c0,0 -1.888,-22.644 21.597,-25.213m0.242,0c0,0 21.522,-0.299 21.214,25.213m0,211.362c0,0 -0.578,18.055 -21.272,16.033m0,0c0,0 -8.939,-0.987 -9.282,-6.798m0,0l0,-31.728" style="fill:none;stroke:#5498da;stroke-width:4px;"/><path d="M271.96,10.8l-20.832,0l0,338.4l20.832,0l0,-338.4Zm-20.832,338.4l-11.472,0c0,0 -1.048,-19.301 -60.61,-19.686m0,0l0,-10.317l92.914,0m0,30.003l11.471,0c0,0 1.048,-19.301 60.61,-19.686m0,0l0,-10.317l-72.081,0" style="fill:none;stroke:#5498da;stroke-width:4px;"/><g><g><path d="M107.736,63.725l0,154.984" style="fill:none;stroke:#5498da;stroke-width:1px;"/><path d="M187.456,73.329l0,180.5" style="fill:none;stroke:#5498da;stroke-width:1px;"/><path d="M82.776,82.435l0,144.395" style="fill:none;stroke:#5498da;stroke-width:1px;"/><path d="M212.374,63.725l0,168.911" style="fill:none;stroke:#5498da;stroke-width:1px;"/><path d="M69.792,80.431l161.215,0" style="fill:none;stroke:#5498da;stroke-width:1px;"/><path d="M107.694,112.657l123.313,0" style="fill:none;stroke:#5498da;stroke-width:1px;"/><path d="M221.478,80.435l0,32.222" style="fill:none;stroke:#5498da;stroke-width:1px;"/><path d="M232.998,152.16l-161.215,0" style="fill:none;stroke:#5498da;stroke-width:1px;"/><path d="M219.572,177.802l-147.789,0" style="fill:none;stroke:#5498da;stroke-width:1px;"/><path d="M77.501,152.16l0,25.642" style="fill:none;stroke:#5498da;stroke-width:1px;"/><path d="M117.06,138.299l0,50.031" style="fill:none;stroke:#5498da;stroke-width:1px;"/><path d="M178.601,140.933l0,68.05" style="fill:none;stroke:#5498da;stroke-width:1px;"/><path d="M84.569,168.449l138.076,0" style="fill:none;stroke:#5498da;stroke-width:1px;"/></g><path d="M107.673,112.583c-9.589,-1.687 -50.876,-15.807 0,-32.148m0,32.148l79.783,0m0.062,-32.148c9.589,1.687 50.877,15.806 0,32.148m0,-32.148l-79.782,0" style="fill:none;stroke:#5498da;stroke-width:3px;"/><path d="M93.222,177.247l110.121,0m-110.078,0.016c0,0 -27.942,-7.318 14.471,-22.398m0,0c0,0 5.14,-2.294 10.052,-2.755m0,0l54.054,0m31.501,25.137c0,0 27.942,-7.318 -14.471,-22.399m0,0c0,0 -5.14,-2.293 -10.052,-2.754m0,0l-54.054,0" style="fill:none;stroke:#5498da;stroke-width:3px;"/></g><path d="M251.128,301.673l10.416,0m-10.416,-17.523l10.416,0m-10.416,-17.52l10.416,0m-10.416,-17.52l10.416,0m-10.416,-17.52l10.416,0m-10.416,-17.52l10.416,0m-10.416,-17.52l10.416,0m-10.416,-17.52l10.416,0m-10.416,-17.52l10.416,0m-10.416,-17.52l10.416,0m-10.416,-17.52l10.416,0m-10.416,-17.52l10.416,0m-10.416,-17.52l10.416,0m-10.416,-17.52l10.416,0m-10.416,-17.52l10.416,0m-10.416,-17.52l10.416,0m-10.416,-17.486l10.416,0" style="fill:none;stroke:#5498da;stroke-width:2px;"/></svg>