<?xml version="1.0" encoding="UTF-8" standalone="no"?><!DOCTYPE svg PUBLIC "-//W3C//DTD SVG 1.1//EN" "http://www.w3.org/Graphics/SVG/1.1/DTD/svg11.dtd"><svg width="100%" height="100%" viewBox="0 0 360 360" version="1.1" xmlns="http://www.w3.org/2000/svg" xmlns:xlink="http://www.w3.org/1999/xlink" xml:space="preserve" xmlns:serif="http://www.serif.com/" style="fill-rule:evenodd;clip-rule:evenodd;stroke-linecap:round;stroke-linejoin:round;stroke-miterlimit:1.5;"><g><path d="M349.18,12.448c0,0 -0.879,29.175 -3.8,36.765c-2.921,7.59 -8.121,31.35 -10.922,32.226c-2.801,0.875 -55.876,-55.877 -55.876,-55.877c0,0 32.197,-12.625 35.339,-11.606c3.142,1.02 21.315,-4.512 34.981,-2.838" style="fill:#abcdef;stroke:#5498da;stroke-width:1px;"/><path d="M269.921,160.904l4.361,27.84l-42.487,68.352l-14.679,-61.706c0,0 49.195,-26.572 52.805,-34.486Z" style="fill:#abcdef;stroke:#5498da;stroke-width:1px;"/><path d="M199.326,89.835l-27.978,-4.025l-68.352,42.487l60.952,15.919c0,0 18.342,-33.938 35.378,-54.381Z" style="fill:#abcdef;stroke:#5498da;stroke-width:1px;"/><path d="M233.962,126.058l-38.108,53.962l-28.185,11.754l12.331,-27.579l53.962,-38.137Z" style="fill:#abcdef;stroke:#5498da;stroke-width:1px;"/></g><path d="M334.458,81.439l-55.876,-55.877" style="fill:none;stroke:#5498da;stroke-width:4px;"/><path d="M348.902,11.118c0,0 6.356,55.294 -41.783,114.001c-22.312,27.21 -64.454,60.23 -109.733,79.674m151.516,-193.675c0,0 -55.294,-6.356 -114,41.783c-27.21,22.312 -60.23,64.454 -79.675,109.734m42.159,42.158l-16.408,-16.408m-8.309,-8.309l-17.442,-17.441m115.478,0.167l3.577,25.942l-42.487,68.352l-14.679,-61.706m-19.826,-106.003l-25.942,-3.577l-68.352,42.487l61.706,14.679" style="fill:none;stroke:#5498da;stroke-width:4px;"/><path d="M233.962,126.058l-38.731,54.845l-27.871,11.758m66.602,-66.603l-54.844,38.732l-11.758,27.871" style="fill:none;stroke:#5498da;stroke-width:4px;"/><path d="M290.919,69.101c-7.814,-7.813 -20.501,-7.813 -28.315,0c-7.813,7.814 -7.813,20.501 0,28.315c7.814,7.813 20.501,7.813 28.315,0c7.813,-7.814 7.813,-20.501 0,-28.315Z" style="fill:#abcdef;stroke:#5498da;stroke-width:4px;"/><path d="M190.464,197.871l-6.814,6.814m-21.501,-35.128l-6.813,6.813m28.314,28.315l-28.314,-28.315m28.314,28.315l0,20.64m-28.314,-48.955l-20.64,0m48.954,48.955l-48.954,-48.955" style="fill:none;stroke:#5498da;stroke-width:4px;"/><path d="M149.897,209.959l-35.502,15.112c-18.969,7.285 -34.786,9.009 -34.869,-35.667l0.012,-2.201c0,0 0.07,-11.511 -10.521,-8.309c0,0 -4.06,-5.886 -6.201,-8.027c-5.684,-5.684 -14.892,-5.705 -20.55,-0.047c-3.19,3.19 -4.574,7.508 -4.157,11.687c-7.185,-1.594 -15.055,0.437 -20.69,6.072c-8.719,8.719 -8.809,22.785 -0.202,31.392c4.596,4.596 10.748,6.712 16.811,6.359c-0.628,0.435 -1.226,0.933 -1.785,1.492c-5.111,5.111 -5.063,13.46 0.109,18.631c1.738,1.738 3.835,2.898 6.048,3.477c-1.491,1.04 -2.913,2.226 -4.245,3.558c-11.82,11.82 -12.141,30.693 -0.715,42.119c0.382,0.382 0.772,0.751 1.171,1.106c0.088,0.131 0.191,0.256 0.309,0.373c5.4,5.4 12.463,8.177 19.659,8.355c0.179,7.196 2.955,14.26 8.355,19.66c0.117,0.117 0.242,0.22 0.373,0.309c0.356,0.398 0.724,0.788 1.106,1.17c11.426,11.426 30.299,11.106 42.119,-0.715c1.333,-1.332 2.519,-2.754 3.558,-4.244c0.58,2.212 1.739,4.309 3.477,6.048c5.172,5.171 13.52,5.22 18.632,0.108c0.559,-0.559 1.056,-1.157 1.492,-1.785c-0.353,6.064 1.763,12.216 6.358,16.811c8.607,8.607 22.674,8.517 31.392,-0.201c5.635,-5.636 7.666,-13.505 6.073,-20.691c4.179,0.418 8.497,-0.967 11.686,-4.157c5.658,-5.658 5.637,-14.866 -0.047,-20.55c-2.14,-2.14 -8.027,-6.2 -8.027,-6.2c3.203,-10.592 -8.309,-10.522 -8.309,-10.522l-2.201,0.012c-44.676,-0.083 -42.951,-15.9 -35.666,-34.869l15.111,-35.501l0.189,-0.315l-0.067,0.028l0.029,-0.067l-0.315,0.189Z" style="fill:#abcdef;stroke:#5498da;stroke-width:4px;"/></svg>